<svg width="44" height="44" viewBox="0 0 44 44" fill="none" xmlns="http://www.w3.org/2000/svg">
<path d="M6.56003 0.0994644C5.00745 0.378731 3.57147 1.2848 2.338 2.76181C2.08026 3.0659 1.8532 3.32655 1.82865 3.33896C1.79797 3.35137 1.77956 3.38861 1.77956 3.42584C1.77956 3.45687 1.6691 3.67408 1.54023 3.89749C0.994063 4.84079 0.454035 6.46674 0.331301 7.52175C0.306754 7.72034 0.269934 7.86308 0.245387 7.85067C0.214704 7.83205 0.208567 7.86928 0.226977 7.93134C0.239251 7.9934 0.226977 8.29749 0.190157 8.60158C0.0858336 9.44559 0.098107 12.3375 0.208567 13.5601C0.312891 14.7703 0.496991 16.1108 0.681092 17.0975C1.04316 19.0337 1.47886 21.0941 1.65682 21.7209C1.72433 21.9443 1.87161 22.4842 1.99434 22.9311C2.11094 23.3717 2.23367 23.8185 2.26436 23.9116C2.30118 24.0109 2.30731 24.1288 2.2889 24.1784C2.27049 24.2281 2.28277 24.2653 2.31959 24.2653C2.35027 24.2653 2.42391 24.4391 2.48528 24.6501C3.10508 26.8966 4.86631 31.7249 6.08751 34.5361C6.22252 34.8402 6.36979 35.1753 6.41275 35.2808C6.45571 35.3801 6.60299 35.7153 6.74413 36.0131C6.88528 36.3172 6.99574 36.5779 6.99574 36.5903C6.99574 36.6089 7.13074 36.9068 7.29643 37.2543C7.46212 37.6019 7.73828 38.1914 7.9101 38.57C8.37649 39.5691 8.43172 39.6871 8.48695 39.7057C8.5115 39.7181 8.51763 39.7491 8.49922 39.7801C8.48081 39.805 8.5115 39.8608 8.56059 39.9043C8.60968 39.9477 8.65264 40.0346 8.65264 40.0904C8.65264 40.1525 8.67105 40.2146 8.70173 40.227C8.75696 40.2518 9.45041 41.4992 9.45041 41.5799C9.45041 41.6171 9.47496 41.6419 9.4995 41.6419C9.52405 41.6419 9.66519 41.8033 9.8002 41.9957C10.0948 42.4115 10.7882 43.212 10.8864 43.2493C10.9539 43.2741 11.3528 43.5596 11.4141 43.6278C11.4694 43.6899 11.9296 43.8698 12.1812 43.9319C12.5003 44.0064 13.292 43.9753 13.5988 43.8761C14.3598 43.6278 15.1759 42.939 15.7405 42.0763C16.0228 41.6419 16.6549 40.4194 16.8819 39.867C16.9372 39.7305 17.0783 39.3954 17.2072 39.1161C17.3299 38.8368 17.4281 38.5886 17.4281 38.5638C17.4281 38.5265 18.2627 36.3855 18.6677 35.3739C19.7478 32.6868 20.9874 30.5706 21.8895 29.8755L22.0981 29.7141L22.4847 30.1175C22.8529 30.4961 23.1475 30.8995 23.7366 31.8241C24.0803 32.3641 24.9455 34.1514 25.3076 35.0636C25.4671 35.4546 25.6206 35.8332 25.6512 35.9014C25.7924 36.2179 26.0808 36.944 26.0808 36.9937C26.0808 37.0247 26.1483 37.1923 26.2281 37.3722C26.3079 37.5522 26.4306 37.8749 26.4981 38.0859C26.9093 39.3023 27.7868 41.1579 28.4925 42.2873C28.695 42.61 29.2719 43.181 29.6524 43.4354C30.2599 43.8512 30.6158 43.9567 31.3768 43.9567C31.8002 43.9567 32.0641 43.9319 32.107 43.8885C32.15 43.845 32.2298 43.814 32.285 43.814C32.3402 43.814 32.5918 43.6775 32.8434 43.5161C33.3037 43.212 33.9849 42.5045 34.3899 41.9212C35.0404 40.9841 36.0897 38.9051 37.3232 36.1249C38.1639 34.2134 38.4094 33.6425 38.6365 33.0529C38.7531 32.755 38.8881 32.4323 38.931 32.3392C38.9801 32.2524 39.0783 32.0103 39.1519 31.8055C39.2256 31.6007 39.3545 31.2656 39.4281 31.0608C39.8208 30.0306 39.9436 29.7079 40.4407 28.2992C40.7352 27.4614 41.085 26.4436 41.2077 26.034C41.3366 25.6244 41.4655 25.2769 41.4962 25.2707C41.5207 25.2583 41.533 25.2273 41.5207 25.2024C41.5023 25.1776 41.5882 24.8239 41.7109 24.4205C42.1589 22.869 42.8892 19.9212 43.1653 18.5559C43.5029 16.8679 43.7545 15.2978 43.7545 14.9254C43.7545 14.7889 43.779 14.7082 43.8036 14.7517C43.8281 14.7889 43.8465 14.6772 43.8526 14.5034C43.8526 14.3234 43.8895 13.7897 43.9324 13.3181C43.9815 12.7533 43.9999 11.7542 43.9815 10.4323C43.957 8.57055 43.9447 8.34093 43.7913 7.50934C43.7054 7.01286 43.5888 6.47295 43.5397 6.30539C43.4906 6.13783 43.466 5.97647 43.4844 5.95165C43.4967 5.92683 43.4844 5.8958 43.4599 5.88339C43.4292 5.87718 43.3494 5.69721 43.2758 5.49241C43.0672 4.87182 42.8708 4.36914 42.7971 4.27605C42.7603 4.22641 42.6376 4.02161 42.5271 3.81681C42.4167 3.61202 42.2694 3.36999 42.1957 3.2769C42.1221 3.18381 41.9441 2.94799 41.7969 2.74939C41.5084 2.37083 40.7536 1.66336 40.3425 1.38409C40.2136 1.291 40.0909 1.19791 40.0724 1.1793C39.9988 1.08 39.0783 0.608353 38.6856 0.471821C37.6976 0.12429 37.5441 0.0994644 36.2063 0.105671C35.2367 0.105671 34.8501 0.130497 34.5188 0.211174C34.2856 0.273232 33.9787 0.341496 33.8437 0.372528C33.2362 0.509056 31.6775 1.10482 31.1129 1.42133C31.0638 1.44615 30.6895 1.64474 30.2844 1.86195C29.3517 2.35842 29.1737 2.45772 28.873 2.66251C28.6644 2.80525 28.1857 3.10313 27.6457 3.43205C27.5782 3.47549 27.3388 3.63684 27.1118 3.79819C26.8847 3.96576 26.6699 4.09608 26.6393 4.09608C26.6086 4.09608 26.5718 4.1209 26.5595 4.14573C26.5411 4.18917 26.1851 4.46223 25.8047 4.71667C25.7249 4.76632 25.3015 5.07662 24.8596 5.39933C24.4116 5.72203 23.8777 6.1068 23.6691 6.25574C23.4605 6.39848 23.2457 6.55363 23.1966 6.59707C23.0923 6.68395 22.767 6.90736 22.675 6.95081C22.6443 6.96943 22.2454 7.22387 21.7974 7.52796C21.3494 7.82584 20.969 8.06787 20.9506 8.06787C20.9321 8.06787 20.8401 8.11752 20.7542 8.18578C20.3246 8.48988 18.6125 9.30906 18.4038 9.30906C18.3547 9.30906 18.2872 9.33388 18.2504 9.37112C18.1706 9.45179 17.1335 9.72485 16.5076 9.83035C14.9673 10.091 13.384 10.1158 12.396 9.89862C11.9051 9.79312 10.9416 9.47662 10.6655 9.33388C10.5673 9.28423 10.4936 9.25941 10.4936 9.27182C10.4936 9.30906 10.2298 9.19735 9.55473 8.88085C9.32768 8.77535 9.1313 8.68847 9.11289 8.68847C9.10062 8.68847 8.65878 8.47746 8.13716 8.21682C7.61554 7.95617 7.15529 7.76378 7.12461 7.7886C6.90982 7.91893 7.2412 8.84361 7.87328 9.89862C7.91624 9.96688 7.9592 10.0351 7.97761 10.0538C7.99602 10.0724 8.08807 10.1965 8.19239 10.3268C8.45013 10.6868 9.32768 11.5556 9.64065 11.7728C10.2911 12.2196 10.4016 12.3003 10.4323 12.3438C10.4691 12.3934 11.7639 13.014 12.304 13.2374C12.6476 13.3801 13.3349 13.5477 14.2063 13.7029C14.82 13.8146 16.3235 13.7835 17.1826 13.6408C17.6061 13.5725 17.9988 13.4918 18.054 13.4608C18.1093 13.4298 18.2197 13.405 18.2934 13.405C18.4222 13.405 19.2446 13.1257 19.668 12.9395C19.7723 12.8961 19.9196 12.8402 20.0055 12.8154C20.1589 12.7658 20.6867 12.5175 21.1224 12.2817C21.2512 12.2134 21.5274 12.0645 21.736 11.959C21.9508 11.8473 22.1349 11.748 22.1533 11.7232C22.227 11.6425 22.6381 11.4191 22.7118 11.4191C22.7609 11.4191 22.8345 11.3632 22.8775 11.295C22.9204 11.2267 22.9818 11.1708 23.0186 11.1708C23.0554 11.1708 23.3316 11.0033 23.6323 10.7985C23.9268 10.5937 24.1907 10.4261 24.2091 10.4261C24.2275 10.4261 24.2766 10.3951 24.3196 10.3579C24.4362 10.2586 25.9765 9.17253 26.1115 9.09806C26.179 9.06082 26.314 8.96152 26.4061 8.87464C26.5042 8.78776 26.7006 8.63261 26.8479 8.53332C26.989 8.42781 27.5045 8.06787 27.9893 7.72034C29.5358 6.62189 30.3704 6.07577 31.1743 5.62894C31.3584 5.52965 31.5793 5.39312 31.6652 5.33727C31.8861 5.18832 32.825 4.71667 32.9048 4.71667C32.9416 4.71667 33.0214 4.67944 33.0705 4.636C33.2853 4.45602 34.7704 3.94714 35.2613 3.87887C35.427 3.86026 35.6909 3.81061 35.8504 3.77337C36.1388 3.70511 36.3536 3.72993 37.0962 3.92231C37.4275 4.0092 37.9246 4.23261 37.9246 4.29467C37.9246 4.31949 37.9676 4.34432 38.0167 4.34432C38.0658 4.34432 38.1087 4.36914 38.1087 4.40638C38.1087 4.43741 38.1517 4.46844 38.2069 4.46844C38.2621 4.46844 38.5076 4.67323 38.7469 4.91526C39.5754 5.76548 40.097 7.17422 40.3179 9.12288C40.3977 9.79932 40.3916 11.7108 40.3118 12.6292C40.2013 13.8704 40.1277 14.5593 40.0602 14.8944C40.0234 15.0806 39.9865 15.2916 39.9804 15.3598C39.8454 16.4024 39.2563 19.3564 39.109 19.735C39.0906 19.7847 39.066 19.884 39.0599 19.9522C38.9924 20.4239 38.2314 23.1669 38.1578 23.1979C38.1333 23.2103 38.121 23.2476 38.1394 23.2724C38.1701 23.322 37.5319 25.4941 37.4275 25.6927C37.403 25.7423 37.3232 25.9658 37.2557 26.1892C36.9366 27.238 35.4393 31.216 35.0772 31.9917C35.0281 32.091 34.9606 32.2586 34.9299 32.3641C34.8256 32.6682 34.5249 33.3818 34.2426 33.9776C34.1015 34.2879 33.9174 34.6975 33.8376 34.8899C33.6412 35.3615 32.7821 37.1674 32.0764 38.5824C31.702 39.3333 31.4811 39.7181 31.4136 39.7181C31.3338 39.7181 30.9288 39.234 30.9288 39.1409C30.9288 39.1223 30.849 38.9299 30.7508 38.7127C30.4195 37.9804 30.3274 37.7632 30.0451 37.0371C29.8917 36.6399 29.7628 36.28 29.7628 36.2304C29.7628 36.1807 29.7383 36.1186 29.7076 36.0814C29.6769 36.0504 29.5419 35.7339 29.4069 35.3739C29.1676 34.7596 28.9651 34.2507 28.4557 33.0095C28.0875 32.1282 27.3143 30.614 26.7927 29.7576C25.5285 27.6972 24.2828 26.5243 22.9511 26.1457C22.5829 26.0464 21.5213 26.0464 21.1408 26.1519C19.9564 26.4808 18.7598 27.5607 17.5938 29.3418C16.8819 30.4278 16.3971 31.3401 15.8326 32.6123C15.7589 32.7799 15.63 33.0777 15.5441 33.2639C15.4582 33.4501 15.3109 33.8162 15.2128 34.0707C15.1084 34.3251 14.9489 34.7285 14.8507 34.9706C14.7525 35.2064 14.5193 35.8146 14.3352 36.311C13.4945 38.5514 12.9299 39.7181 12.6783 39.7181C12.6108 39.7181 11.6535 37.8563 10.9539 36.3359C10.7943 35.9945 10.5305 35.4298 10.3648 35.0761C10.1991 34.7223 10.0641 34.4244 10.0641 34.4058C10.0641 34.3872 9.95362 34.139 9.81861 33.8535C9.6836 33.568 9.57314 33.3074 9.57314 33.2763C9.57314 33.2453 9.50564 33.0964 9.42586 32.9412C9.34609 32.7923 9.26017 32.5999 9.23563 32.513C9.21108 32.4323 9.06993 32.0848 8.92265 31.7435C8.65264 31.1167 8.22307 30.0058 8.22307 29.9438C8.22307 29.9189 8.16784 29.7886 8.10648 29.6397C7.96533 29.3418 7.82419 28.9508 7.69532 28.5474C7.64622 28.3923 7.58486 28.2123 7.54804 28.144C7.37007 27.7841 6.29002 24.5012 5.89113 23.1172C5.75613 22.6394 5.60271 22.1119 5.55362 21.9505C5.41861 21.5037 4.73744 18.6862 4.69448 18.4007C4.66993 18.2642 4.6147 17.9849 4.56561 17.7739C4.33855 16.7872 3.93353 14.069 3.80466 12.6292C3.63897 10.8171 3.78012 8.65744 4.14832 7.19904C4.37537 6.3116 4.76812 5.54206 5.28974 4.98973C5.72544 4.52429 5.81749 4.45602 6.3207 4.2202C7.4253 3.6927 8.35194 3.68649 9.92907 4.20158C10.2052 4.28846 10.4323 4.38776 10.4323 4.41258C10.4323 4.44361 10.4936 4.46844 10.5673 4.46844C10.6839 4.46844 11.9051 5.05179 12.4881 5.38691C12.5924 5.44277 12.9238 5.62894 13.2245 5.80271C13.5313 5.97027 13.789 6.12542 13.8075 6.14404C13.9241 6.26815 14.7832 6.69016 15.3969 6.93219C17.2379 7.63966 19.0911 7.55899 20.8646 6.68395C21.1531 6.54121 21.3985 6.40469 21.4169 6.38607C21.4353 6.36124 21.6072 6.24333 21.8097 6.11301C22.54 5.64136 23.89 4.33811 23.7673 4.21399C23.7305 4.17676 23.4482 4.22641 22.9757 4.35052C21.9508 4.62358 21.3617 4.71667 20.6253 4.71667C19.8705 4.71667 19.4777 4.64841 18.5634 4.35673C17.9252 4.15194 16.7347 3.59961 16.3787 3.34517C16.2867 3.2831 16.1946 3.22725 16.1762 3.22725C16.1517 3.22725 15.9492 3.10934 15.7221 2.9604C14.9427 2.45151 14.5807 2.2343 13.7154 1.78127C13.5804 1.7068 13.427 1.61992 13.3779 1.57648C13.249 1.48339 11.8437 0.844177 11.3344 0.651794C10.7146 0.41597 9.80634 0.186348 9.14357 0.0870552C8.40717 -0.0184479 7.16756 -0.0122414 6.56003 0.0994644Z" fill="#00CECE"/>
</svg>
